<svg viewBox="0 0 48 48" xmlns="http://www.w3.org/2000/svg" fill="#fd9800" ><g id="SVGRepo_bgCarrier" stroke-width="0"></g><g id="SVGRepo_tracerCarrier" stroke-linecap="round" stroke-linejoin="round"></g><g id="SVGRepo_iconCarrier"> <title>device-multiple-solid</title> <g id="Layer_2" data-name="Layer 2"> <g id="invisible_box" data-name="invisible box"> <rect width="48" height="48" fill="none"></rect> </g> <g id="icons_Q2" data-name="icons Q2"> <path d="M44,19H32a2,2,0,0,0-2,2V43a2,2,0,0,0,2,2H44a2,2,0,0,0,2-2V21a2,2,0,0,0-2-2Z"></path> <path d="M40,9a2,2,0,0,0-2-2H7A2,2,0,0,0,5,9V31a2,2,0,0,0,2,2H26V17a2,2,0,0,1,2-2H40Z"></path> <path d="M26,37v4H4a2,2,0,0,1,0-4Z"></path> </g> </g> </g></svg>